# AST/ASF file generated using VICON BodyLanguage
# -----------------------------------------------
:version 1.10
:name VICON
:units
  mass 1.0
  length 0.45
  angle deg
:documentation
   .ast/.asf automatically generated from VICON data using
   VICON BodyBuilder and BodyLanguage model FoxedUp or BRILLIANT.MOD
:root
   order TX TY TZ RX RY RZ
   axis XYZ
   position 0 0 0  
   orientation 0 -0 0 
:bonedata
  begin
     id 1 
     name lhipjoint
     direction 0.432694 -0.693742 0.575759 
     length 2.19277 
     axis 0 -0 0  XYZ
  end
  begin
     id 2 
     name lfemur
     direction 0.34202 -0.939693 0  
     length 6.69022  
     axis 0 -0 20  XYZ
    dof rx ry rz
    limits (-160.0 20.0)
           (-70.0 70.0)
           (-60.0 70.0)
  end
  begin
     id 3 
     name ltibia
     direction 0.34202 -0.939693 0   
     length 6.50337   
     axis 0 -0 20   XYZ
    dof rx
    limits (-10.0 170.0)
  end
  begin
     id 4 
     name lfoot
     direction 0.158999 -0.435969 0.885805   
     length 2.70564   
     axis -90 -1.13533e-015 20   XYZ
    dof rx rz
    limits (-45.0 90.0)
           (-70.0 20.0)
  end
  begin
     id 5 
     name ltoes
     direction -0.00592919 0.00964381 0.999936   
     length 1.29929   
     axis -90 -1.13533e-015 20   XYZ
    dof rx
    limits (-90.0 20.0)
  end
  begin
     id 6 
     name rhipjoint
     direction -0.414359 -0.700339 0.581234   
     length 2.17212  
     axis 0 -0 0  XYZ 
  end
  begin
     id 7 
     name rfemur
     direction -0.34202 -0.939693 0   
     length 7.17659   
     axis 0 -0 -20   XYZ
    dof rx ry rz
    limits (-160.0 20.0)
           (-70.0 70.0)
           (-70.0 60.0)
  end
  begin
     id 8 
     name rtibia
     direction -0.34202 -0.939693 0   
     length 6.36669   
     axis 0 -0 -20   XYZ
    dof rx
    limits (-10.0 170.0)
 end
 begin
     id 9 
     name rfoot
     direction -0.137064 -0.37658 0.916188   
     length 2.22351  
     axis -90 1.13533e-015 -20   XYZ
    dof rx rz
    limits (-45.0 90.0)
           (-20.0 70.0)
  end
  begin
     id 10 
     name rtoes
     direction -0.000784077 -0.00289101 0.999996   
     length 1.09522   
     axis -90 1.13533e-015 -20   XYZ
    dof rx
    limits (-90.0 20.0)
  end
  begin
     id 11 
     name lowerback
     direction -0.0176242 0.984912 -0.172157   
     length 1.65301   
     axis 0 -0 0   XYZ
    dof rx ry rz
    limits (-20.0 45.0)
           (-30.0 30.0)
           (-30.0 30.0)
  end
  begin
     id 12 
     name upperback
     direction -0.00218128 0.998776 -0.0494072   
     length 1.67776   
     axis 0 -0 0   XYZ
    dof rx ry rz
    limits (-20.0 45.0)
           (-30.0 30.0)
           (-30.0 30.0)
  end
  begin
     id 13 
     name thorax
     direction 0.00544186 0.999658 0.0255711   
     length 1.72293   
     axis 0 -0 0   XYZ
    dof rx ry rz
    limits (-20.0 45.0)
           (-30.0 30.0)
           (-30.0 30.0)
  end
  begin
     id 14 
     name lowerneck
     direction -0.105325 0.983841 0.144785   
     length 2.14226   
     axis 0 -0 0   XYZ
    dof rx ry rz
    limits (-20.0 45.0)
           (-30.0 30.0)
           (-30.0 30.0)
  end
  begin
     id 15 
     name upperneck
     direction 0.0547957 0.988053 -0.144041   
     length 2.17508   
     axis 0 -0 0   XYZ
    dof rx ry rz
    limits (-20.0 45.0)
           (-30.0 30.0)
           (-30.0 30.0)
  end
  begin
     id 16
     name head
     direction 0.0247488 0.997534 -0.0656813  
     length 2.20048  
     axis 0 -0 0   XYZ
    dof rx ry rz
    limits (-20.0 45.0)
           (-30.0 30.0)
           (-30.0 30.0)
  end
  begin
     id 17 
     name lclavicle
     direction 0.820559 0.567247 -0.0701026  
     length 4.09615  
     axis 0 -0 0   XYZ
    dof ry rz
    limits (-20.0 10.0)
           (0.0 20.0)
  end
  begin
     id 18 
     name lhumerus
     direction 0.999977 -0.0067566 -9.96392e-005   
     length 4.59333   
     axis -180 -30 -90   XYZ
    dof rx ry rz
    limits (-60.0 90.0)
           (-90.0 90.0)
           (-90.0 90.0)
  end
  begin
     id 19
     name lradius
     direction 1 -4.48982e-011 -2.53425e-027   
     length 2.81151   
     axis -180 -30 -90   XYZ
    dof rx
    limits (-10.0 170.0)
  end
  begin
     id 20
     name lwrist
     direction 1 -4.48939e-011 -7.39254e-028   
     length 1.40576   
     axis 2.56395e-016 90 90   XYZ
    dof ry
    limits (-180.0 0.0)
 end
  begin
     id 21 
     name lhand
     direction 1 -4.48939e-011 -1.47851e-027   
     length 0.895651   
     axis 9.43423e-016 90 90   XYZ
    dof rx rz
    limits (-90.0 90.0)
           (-45.0 45.0)
  end
  begin
     id 22 
     name lfingers
     direction 1 -4.48978e-011 -2.95702e-027   
     length 0.722097   
     axis 1.88685e-015 90 90   XYZ
    dof rx
    limits (0.0 90.0)
  end
  begin
     id 23
     name lthumb
     direction 0.707107 -6.34931e-011 0.707107   
     length 1.03679   
     axis -90 45 -9.86935e-015   XYZ
    dof rx rz
    limits (-45.0 45.0)
           (-45.0 45.0)
  end
  begin
     id 24 
     name rclavicle
     direction -0.831414 0.553102 -0.0531864   
     length 4.24872  
     axis 0 -0 0   XYZ 
    dof ry rz
    limits (-10.0 20.0)
           (-20.0 0.0)
  end
  begin
     id 25 
     name rhumerus
     direction -0.999916 -0.000939607 0.0129331  
     length 4.74834   
     axis -180 30 90   XYZ
    dof rx ry rz
    limits (-90.0 60.0)
           (-90.0 90.0)
           (-90.0 90.0)
  end
  begin
     id 26 
     name rradius
     direction -1 -4.48956e-011 -1.31752e-027   
     length 2.79907   
     axis -180 30 90   XYZ
    dof rx
    limits (-10.0 170.0)
  end
  begin
     id 27 
     name rwrist
     direction -1 -4.4897e-011 -7.39254e-028   
     length 1.39954   
     axis 2.56395e-016 -90 -90   XYZ
    dof ry
    limits (-180.0 0.0)
  end
  begin
     id 28
     name rhand
     direction -0.999997 -0.00250697 0.000800838   
     length 0.953304   
     axis 9.43423e-016 -90 -90   XYZ
    dof rx rz
    limits (-90.0 90.0)
           (-45.0 45.0)
  end
  begin
     id 29
     name rfingers
     direction -1 -4.48954e-011 -2.95702e-027   
     length 0.763342   
     axis 1.88685e-015 -90 -90   XYZ
    dof rx
    limits (0.0 90.0)
  end
  begin
     id 30
     name rthumb
     direction -0.709701 -0.00217037 0.7045   
     length 1.10115   
     axis -90 -45 9.86935e-015   XYZ
    dof rx rz
    limits (-45.0 45.0)
           (-45.0 45.0)
  end
:hierarchy
  begin
    root lhipjoint rhipjoint lowerback
    lhipjoint lfemur
    lfemur ltibia
    ltibia lfoot
    lfoot ltoes
    rhipjoint rfemur
    rfemur rtibia
    rtibia rfoot
    rfoot rtoes
    lowerback upperback
    upperback thorax
    thorax lowerneck lclavicle rclavicle
    lowerneck upperneck
    upperneck head
    lclavicle lhumerus
    lhumerus lradius
    lradius lwrist
    lwrist lhand lthumb
    lhand lfingers
    rclavicle rhumerus
    rhumerus rradius
    rradius rwrist
    rwrist rhand rthumb
    rhand rfingers
  end

#!OML:ASF G:\ViconDB\ViconDB\414\test\team2\shane.ASF
:FULLY-SPECIFIED
:DEGREES
99
root -7.32281 16.5366 -5.84727 -10.6721 22.1543 -9.75457
lowerback 7.84522 -2.73735 2.18214
upperback 2.95536 -3.37976 3.79009
thorax -1.22989 -1.68479 2.98466
lowerneck -16.2504 -2.96028 -9.15952
upperneck 22.6775 -3.90834 8.99283
head 10.2804 -1.54222 4.22295
rclavicle -5.72042e-014 4.07757e-014
rhumerus -48.8124 -14.9426 -69.1236
rradius 20.2465
rwrist 54.4767
rhand -27.1396 -12.0834
rfingers 7.12502
rthumb -0.554942 -42.0624
lclavicle -5.72042e-014 4.07757e-014
lhumerus -21.039 -18.613 95.7251
lradius 38.2496
lwrist -18.6187
lhand -41.027 4.92924
lfingers 7.12502
lthumb -13.9577 34.4407
rfemur -13.3519 -23.4878 22.1996
rtibia 33.3455
rfoot -16.701 10.8392
rtoes -4.6151
lfemur 29.5154 -3.37721 -5.16017
ltibia 10.9588
lfoot -6.1312 -31.0855
ltoes -30.4748
100
root -7.31042 16.537 -5.66861 -10.9385 22.2629 -10.075
lowerback 7.75802 -2.6957 2.39483
upperback 3.0658 -3.31046 4.07548
thorax -1.06417 -1.64966 3.14769
lowerneck -16.3926 -2.96098 -9.21698
upperneck 22.8571 -3.82221 8.72989
head 10.3599 -1.53456 4.15388
rclavicle -2.0832e-014 -1.09332e-015
rhumerus -48.0773 -16.0509 -68.3525
rradius 19.8014
rwrist 56.2649
rhand -27.1096 -11.8739
rfingers 7.12502
rthumb -0.525977 -41.853
lclavicle -2.0832e-014 -1.09332e-015
lhumerus -21.4222 -17.9315 96.0538
lradius 37.4923
lwrist -18.4902
lhand -40.953 5.53299
lfingers 7.12502
lthumb -13.8863 35.0494
rfemur -12.4219 -22.988 22.3246
rtibia 33.3826
rfoot -17.1696 10.2525
rtoes -4.22369
lfemur 26.6835 -3.47897 -4.45637
ltibia 17.6084
lfoot -6.45996 -31.7353
ltoes -31.4646
101
root -7.29105 16.5512 -5.49227 -11.1131 22.2742 -10.4087
lowerback 7.58541 -2.68723 2.79691
upperback 3.18084 -3.28083 4.22633
thorax -0.863734 -1.63174 3.06424
lowerneck -16.6768 -2.80234 -8.58095
upperneck 23.1165 -3.58342 8.03102
head 10.4581 -1.44405 3.82978
rclavicle -7.02393e-014 5.01931e-014
rhumerus -47.1616 -16.2379 -68.7939
rradius 19.6817
rwrist 56.8485
rhand -27.2666 -12.343
rfingers 7.12502
rthumb -0.677596 -42.3217
lclavicle -7.02393e-014 5.01931e-014
lhumerus -21.7781 -16.9474 95.9545
lradius 36.635
lwrist -18.7919
lhand -40.7684 5.44004
lfingers 7.12502
lthumb -13.7084 34.9685
rfemur -11.5923 -23.2321 22.5408
rtibia 33.301
rfoot -17.5116 10.4829
rtoes -3.45883
lfemur 24.2097 -3.39485 -3.6603
ltibia 23.0649
lfoot -5.51104 -32.1762
ltoes -31.3378
102
root -7.27949 16.5698 -5.32164 -11.3695 22.4863 -10.7765
lowerback 7.65138 -2.64466 3.22587
upperback 3.24333 -3.18891 4.30834
thorax -0.856396 -1.58137 2.90416
lowerneck -16.7701 -2.7675 -8.07049
upperneck 23.1957 -3.56295 7.60573
head 10.485 -1.4368 3.59195
rclavicle -1.70582e-014 2.49475e-014
rhumerus -46.3157 -16.089 -69.6603
rradius 19.759
rwrist 56.6343
rhand -26.9994 -12.2497
rfingers 7.12502
rthumb -0.419486 -42.229
lclavicle -1.70582e-014 2.49475e-014
lhumerus -22.138 -16.4973 95.9108
lradius 35.6126
lwrist -19.1286
lhand -40.852 6.01696
lfingers 7.12502
lthumb -13.789 35.54
rfemur -10.6659 -23.6266 22.7865
rtibia 33.1393
rfoot -18.009 10.701
rtoes -3.18454
lfemur 21.915 -3.562 -2.96129
ltibia 27.9444
lfoot -4.20054 -32.5425
ltoes -29.6119
103
root -7.26439 16.5941 -5.1548 -11.4565 22.7418 -10.8707
lowerback 7.80176 -2.64935 3.32156
upperback 3.21765 -3.17394 4.40643
thorax -0.965673 -1.57349 2.96029
lowerneck -16.7535 -2.72998 -7.93546
upperneck 23.2373 -3.49874 7.40914
head 10.4848 -1.41834 3.50732
rclavicle 2.6954e-014 -1.26228e-014
rhumerus -45.2254 -14.2042 -71.6734
rradius 19.9941
rwrist 54.1424
rhand -27.1811 -12.7624
rfingers 7.12502
rthumb -0.594989 -42.7413
lclavicle 2.6954e-014 -1.26228e-014
lhumerus -22.6108 -15.91 95.874
lradius 34.6205
lwrist -19.0321
lhand -41.0039 5.10335
lfingers 7.12502
lthumb -13.9354 34.6164
rfemur -9.76538 -24.3966 22.7382
rtibia 32.8674
rfoot -18.4701 11.0333
rtoes -2.97571
lfemur 19.6267 -3.61526 -2.51459
ltibia 32.5448
lfoot -2.87636 -32.7865
ltoes -27.3188
104
root -7.24632 16.6133 -4.99057 -11.5933 22.9192 -10.9652
lowerback 7.98994 -2.56725 3.42072
upperback 3.2091 -3.04098 4.49676
thorax -1.08193 -1.50643 2.9975
lowerneck -16.6378 -2.69625 -7.63123
upperneck 23.1562 -3.48193 7.18549
head 10.4215 -1.41117 3.37455
rclavicle 4.17945e-014 -3.49861e-014
rhumerus -44.356 -13.9787 -72.3381
rradius 20.0204
rwrist 53.7964
rhand -27.1178 -12.4428
rfingers 7.12502
rthumb -0.533899 -42.4219
lclavicle 4.17945e-014 -3.49861e-014
lhumerus -23.1745 -15.5963 96.0129
lradius 33.7684
lwrist -19.208
lhand -41.014 6.05595
lfingers 7.12502
lthumb -13.9451 35.5683
rfemur -8.78546 -24.9316 22.6718
rtibia 32.5577
rfoot -18.9781 11.097
rtoes -3.21119
lfemur 17.585 -3.89193 -2.29269
ltibia 36.8068
lfoot -1.75519 -32.4171
ltoes -23.5806
105
root -7.23522 16.6395 -4.83267 -11.6823 23.261 -11.0588
lowerback 8.32191 -2.52661 3.50049
upperback 3.12604 -2.94976 4.58478
thorax -1.35287 -1.4611 3.05598
lowerneck -16.591 -2.72769 -7.69669
upperneck 23.2329 -3.53548 7.27039
head 10.4479 -1.43176 3.41105
rclavicle -3.11595e-014 -2.62396e-014
rhumerus -43.4499 -12.9954 -73.4705
rradius 20.2161
rwrist 53.1606
rhand -27.2531 -12.6075
rfingers 7.12502
rthumb -0.664538 -42.5862
lclavicle -3.11595e-014 -2.62396e-014
lhumerus -23.7025 -15.2229 96.1517
lradius 32.8505
lwrist -19.1533
lhand -40.8547 6.41951
lfingers 7.12502
lthumb -13.7916 35.9424
rfemur -7.87767 -25.2462 22.651
rtibia 32.158
rfoot -19.3532 10.9629
rtoes -3.05735
lfemur 15.4089 -4.00055 -1.92209
ltibia 40.8108
lfoot -1.2588 -32.1635
ltoes -19.9019
106
root -7.21655 16.6577 -4.67411 -11.7558 23.505 -11.0527
lowerback 8.44495 -2.41129 3.58038
upperback 3.13619 -2.78023 4.59651
thorax -1.41797 -1.37551 3.01327
lowerneck -16.522 -2.789 -7.57857
upperneck 23.2367 -3.66577 7.296
head 10.4456 -1.47843 3.38215
rclavicle 4.46831e-014 -9.48203e-014
rhumerus -42.5068 -12.9046 -74.1092
rradius 20.1566
rwrist 53.2489
rhand -27.7108 -12.5242
rfingers 7.12502
rthumb -1.10659 -42.5011
lclavicle 4.46831e-014 -9.48203e-014
lhumerus -24.1439 -15.0553 96.231
lradius 31.9198
lwrist -19.3579
lhand -40.3074 6.33271
lfingers 7.12502
lthumb -13.2641 35.8907
rfemur -6.89679 -25.4667 22.4911
rtibia 31.705
rfoot -19.7469 10.788
rtoes -2.99692
lfemur 13.4887 -3.99058 -1.70799
ltibia 44.5115
lfoot -2.98989 -30.7574
ltoes -19.2181
107
root -7.20278 16.6856 -4.51617 -11.9026 23.7307 -10.9628
lowerback 8.69084 -2.2555 3.50447
upperback 3.21273 -2.56549 4.57834
thorax -1.47744 -1.26789 3.02523
lowerneck -16.4519 -2.83548 -7.40351
upperneck 23.1024 -3.78076 7.30837
head 10.39 -1.51487 3.33772
rclavicle -2.6165e-014 1.19271e-015
rhumerus -41.3782 -12.2795 -75.2147
rradius 20.2258
rwrist 52.6269
rhand -27.8086 -12.6296
rfingers 7.12502
rthumb -1.20106 -42.606
lclavicle -2.6165e-014 1.19271e-015
lhumerus -24.4507 -15.1502 96.1996
lradius 30.8463
lwrist -19.349
lhand -40.1338 6.63269
lfingers 7.12502
lthumb -13.0967 36.2015
rfemur -5.71646 -25.6191 22.203
rtibia 31.0951
rfoot -20.0017 10.6473
rtoes -2.94803
lfemur 11.683 -3.92616 -1.64016
ltibia 47.9004
lfoot -5.80442 -28.7998
ltoes -20.0241
108
root -7.18412 16.707 -4.36242 -12.0287 23.9112 -10.9002
lowerback 8.7493 -2.05972 3.68358
upperback 3.3536 -2.29394 4.50088
thorax -1.38078 -1.12903 2.81615
lowerneck -16.3223 -2.99739 -7.44466
upperneck 22.9157 -4.05686 7.54263
head 10.3276 -1.62007 3.3871
rclavicle -4.59068e-014 4.65156e-014
rhumerus -40.194 -12.5004 -75.8764
rradius 20.1824
rwrist 52.7265
rhand -28.0379 -12.7927
rfingers 7.12502
rthumb -1.42251 -42.7677
lclavicle -4.59068e-014 4.65156e-014
lhumerus -24.5886 -14.9082 96.0382
lradius 29.5785
lwrist -20.2771
lhand -40.0629 6.0958
lfingers 7.12502
lthumb -13.0285 35.6689
rfemur -4.57166 -25.5468 21.9809
rtibia 30.4
rfoot -20.1623 10.371
rtoes -2.61512
lfemur 9.8892 -3.39009 -1.33349
ltibia 50.9452
lfoot -8.16141 -26.9544
ltoes -20.2816
109
root -7.15461 16.7299 -4.21163 -12.2092 23.9891 -10.9362
lowerback 8.77676 -1.89618 4.03819
upperback 3.55766 -2.05536 4.44959
thorax -1.20296 -1.00386 2.53721
lowerneck -16.4024 -3.09139 -7.39934
upperneck 22.8328 -4.23133 7.69666
head 10.331 -1.6764 3.40866
rclavicle 7.68551e-014 -1.96797e-014
rhumerus -38.8311 -12.3713 -76.6778
rradius 20.1984
rwrist 52.6708
rhand -28.2756 -12.7976
rfingers 7.12502
rthumb -1.65212 -42.7709
lclavicle 7.68551e-014 -1.96797e-014
lhumerus -24.7309 -15.0537 96.0987
lradius 28.5882
lwrist -20.1116
lhand -39.815 6.84199
lfingers 7.12502
lthumb -12.7894 36.4302
rfemur -3.32798 -25.7375 21.7514
rtibia 29.5446
rfoot -20.1185 10.6426
rtoes -2.29566
lfemur 8.25384 -2.97581 -1.13588
ltibia 53.6139
lfoot -9.93843 -24.7963
ltoes -19.5493
110
root -7.13282 16.7551 -4.06083 -12.1547 24.0656 -10.6899
lowerback 8.5665 -1.6899 3.97505
upperback 3.78953 -1.81608 4.35652
thorax -0.851303 -0.88003 2.44061
lowerneck -16.3938 -3.1576 -7.23323
upperneck 22.6316 -4.37266 7.74808
head 10.2666 -1.72136 3.37466
rclavicle -4.56087e-014 -2.66371e-014
rhumerus -37.2762 -12.7842 -77.3204
rradius 20.0265
rwrist 52.9697
rhand -28.5314 -13.0285
rfingers 7.12502
rthumb -1.89915 -42.9998
lclavicle -4.56087e-014 -2.66371e-014
lhumerus -24.9238 -15.2815 95.8961
lradius 27.5045
lwrist -20.2255
lhand -39.8486 6.48018
lfingers 7.12502
lthumb -12.8219 36.0664
rfemur -2.23015 -25.609 21.3896
rtibia 28.6617
rfoot -20.0639 10.5391
rtoes -2.05169
lfemur 6.54006 -2.11981 -0.994595
ltibia 55.8862
lfoot -11.667 -23.0773
ltoes -19.1688
